<?xml version="1.0" encoding="UTF-8"?>
<svg id="Layer_1" data-name="Layer 1" xmlns="http://www.w3.org/2000/svg" xmlns:xlink="http://www.w3.org/1999/xlink" viewBox="0 0 1000 505">
  <defs>
    <style>
      .cls-1 {
        fill: #4c65a1;
      }

      .cls-2 {
        fill: #2cbc8d;
      }

      .cls-3 {
        fill: url(#linear-gradient);
      }
    </style>
    <linearGradient id="linear-gradient" x1="224.11" y1="456.95" x2="224.11" y2="48.05" gradientUnits="userSpaceOnUse">
      <stop offset="0" stop-color="#4f5ca3"/>
      <stop offset=".99" stop-color="#2bbe8c"/>
    </linearGradient>
  </defs>
  <path class="cls-3" d="m386.11,232.63v-82.93c0-5.22,3.21-9.83,8.02-11.86,17.52-7.39,29.59-25.15,28.52-45.59-1.26-23.93-20.89-43.25-44.84-44.17-26.64-1.02-48.56,20.28-48.56,46.7,0,5.96,1.12,11.65,3.15,16.89,1.84,4.73.73,10.09-2.86,13.68l-41.15,41.15c-7.35,7.35-17.93,10.39-28.09,8.2-3.19-.69-6.51-1.05-9.91-1.05-2.57,0-5.09.21-7.54.61-9.77,1.59-19.73-1.32-26.73-8.32l-41.58-41.58c-3.54-3.54-4.65-8.81-2.93-13.5,2.05-5.58,3.06-11.66,2.8-18.01-.98-23.97-20.38-43.56-44.34-44.73-27.68-1.35-50.41,21.39-49.02,49.08,1.21,24.12,21.08,43.57,45.22,44.3,7.4.22,14.43-1.28,20.72-4.13,4.89-2.22,10.64-1.26,14.44,2.54l36.26,36.26c8.02,8.02,11.27,19.8,7.98,30.65-1.5,4.94-2.2,10.23-1.96,15.72,1.08,24.1,20.78,43.64,44.89,44.55,26.63,1,48.52-20.29,48.52-46.7,0-3.94-.49-7.76-1.4-11.41-2.63-10.49.45-21.58,8.09-29.22l39.41-39.41c3.76-3.76,9.41-4.71,14.3-2.61.12.05.25.11.37.16,4.79,2.01,7.96,6.63,7.96,11.83v82.93c0,5.18-3.15,9.81-7.93,11.82-16.84,7.06-28.67,23.7-28.67,43.1,0,7.06,1.57,13.74,4.37,19.74,2.34,5.01,1.03,10.99-3.03,14.75l-53.65,49.73c-7.54-5.21-16.68-8.28-26.54-8.28-5.76,0-11.27,1.04-16.36,2.95-4.9,1.84-10.42.62-13.98-3.22l-102.53-110.62c-3.44-3.71-4.36-9.1-2.35-13.75,2.5-5.78,3.86-12.17,3.8-18.89-.22-25.23-20.91-46-46.14-46.31s-47.65,21.05-47.32,47.33c.31,24.99,20.71,45.58,45.7,46.12,6.34.14,12.39-.99,17.94-3.15,4.96-1.93,10.57-.75,14.19,3.15l102.1,110.16c3.48,3.76,4.37,9.23,2.28,13.91-2.84,6.34-4.3,13.44-4.01,20.9.94,24.21,20.67,43.93,44.88,44.84,26.63,1.01,48.54-20.29,48.54-46.7,0-8.61-2.34-16.67-6.4-23.6l56.54-52.4c3.49-3.23,8.48-4.27,12.96-2.66,5.63,2.02,11.75,2.99,18.14,2.67,24.41-1.21,43.98-21.51,44.35-45.95.3-19.68-11.58-36.61-28.58-43.78-4.81-2.03-8.02-6.64-8.02-11.86Z"/>
  <g>
    <path class="cls-2" d="m528.55,214.9l-24.86-118.66c-.8-3.8,1.26-7.59,4.1-7.59h16.46c2.01,0,3.74,1.94,4.17,4.66l15.26,96.56h.96l15.26-96.56c.43-2.72,2.17-4.66,4.17-4.66h16.46c2.85,0,4.9,3.79,4.1,7.59l-24.86,118.66c-.53,2.53-2.2,4.28-4.1,4.28h-23.01c-1.9,0-3.57-1.74-4.1-4.28Z"/>
    <path class="cls-2" d="m639.15,222.28c-8.64,0-16.23-2.22-22.79-6.66-6.56-4.44-11.65-11.69-15.27-21.75-3.63-10.06-5.44-23.45-5.44-40.18s1.92-31.11,5.76-40.95c3.84-9.84,9.01-16.83,15.51-20.98,6.5-4.14,13.81-6.22,21.91-6.22s15.35,2,21.11,5.99c5.76,3.99,10.16,10.51,13.19,19.53,3.04,9.03,4.56,21.16,4.56,36.4v7.66c0,5.94-3.47,10.76-7.75,10.76h-51.14c-1.62,0-1.97-3.17-.42-3.84l.56-.24c.9-.39,1.83.52,1.84,1.83.04,4.23.2,7.98.47,11.24.32,3.92.85,7.18,1.6,9.77.74,2.59,1.7,4.63,2.88,6.1,1.06,1.33,2.42,2.37,4.08,3.11,1.65.74,3.81,1.11,6.48,1.11,2.88,0,6.08-.41,9.6-1.22,3.52-.81,6.96-1.81,10.31-3,3.36-1.18,6.26-2.25,8.72-3.22.37-.15.73-.29,1.07-.42,2.19-.88,4.49.78,5.23,3.78l3.45,14.12c.73,2.99-.36,6.24-2.47,7.41-.92.51-1.99,1.09-3.2,1.75-3.68,2-8.1,3.85-13.27,5.55-5.17,1.7-10.69,2.55-16.55,2.55Zm-20.2-77.13l-.64-.27c-1.54-.65-1.23-3.81.39-3.85l35.11-.87c1.64-.04,2.01,3.16.45,3.84h0c-.91.4-1.83-.55-1.84-1.87-.05-5.91-.26-10.87-.63-14.87-.43-4.58-1.17-7.84-2.24-9.77-.75-1.18-1.87-2.29-3.36-3.33-1.49-1.03-3.95-1.55-7.36-1.55-4.05,0-7.09.55-9.12,1.66-2.03,1.11-3.57,2.48-4.64,4.11-2.7,3.88-4.13,12.18-4.3,24.89-.02,1.31-.92,2.25-1.83,1.87Z"/>
    <path class="cls-2" d="m698,213.49v-119.15c0-3.14,1.83-5.69,4.1-5.69h8.27c1.78,0,3.35,1.59,3.9,3.94l2.28,9.82h.96c3.09-3.4,5.92-6.18,8.48-8.32,2.56-2.14,5.33-4.07,8.32-5.77,2.98-1.7,5.92-2.55,8.8-2.55,2.38,0,4.66.33,6.82,1,2.04.63,3.46,3.2,3.27,6.09l-1.26,19.52c-.2,3.07-2.14,5.36-4.36,5.16-1.9-.17-3.5-.25-4.8-.25-2.67,0-5.25.41-7.76,1.22-2.51.81-4.77,1.81-6.8,3-1.15.67-2.23,1.37-3.25,2.09-1.36.96-2.19,2.92-2.19,5.04v84.85c0,3.14-1.83,5.69-4.1,5.69h-16.6c-2.26,0-4.1-2.55-4.1-5.69Z"/>
    <path class="cls-2" d="m797.63,222.06c-4.9,0-9.65-.67-14.23-2-4.59-1.33-8.69-2.81-12.31-4.44-2.65-1.19-5.47-2.66-8.46-4.4-1.91-1.12-2.92-4.07-2.3-6.83l3.73-16.62c.69-3.06,3.1-4.68,5.27-3.55,2.81,1.46,5.43,2.76,7.84,3.87,3.52,1.63,7.22,3.03,11.11,4.22,3.89,1.19,7.49,1.78,10.79,1.78,1.81,0,3.28-.22,4.4-.67.95-.38,1.72-.8,2.33-1.29.22-.17.41-.37.6-.59.72-.86,1.29-2.01,1.71-3.45.48-1.63.72-3.4.72-5.33,0-3.7-.85-6.55-2.56-8.55-1.71-2-3.97-3.66-6.8-4.99-2.83-1.33-6-2.66-9.52-4-3.41-1.48-6.88-3.07-10.4-4.77-3.52-1.7-6.74-3.99-9.68-6.88-2.93-2.89-5.3-6.62-7.12-11.21-1.81-4.59-2.72-10.51-2.72-17.76,0-11.69,2.82-21.09,8.48-28.19,5.65-7.1,14.71-10.66,27.19-10.66,4.69,0,9.22.44,13.59,1.33,4.37.89,8.26,1.93,11.67,3.11,1.66.58,3.15,1.12,4.46,1.63,2.01.78,3.25,3.57,2.85,6.42l-2.21,16c-.43,3.1-2.63,5.08-4.85,4.39-2.45-.77-4.72-1.44-6.81-2.02-3.2-.89-6.61-1.66-10.24-2.33-3.63-.67-7.04-1-10.23-1-2.67,0-4.53.22-5.6.67-1.07.44-1.87.96-2.4,1.55-.43.44-.83,1.15-1.2,2.11-.38.96-.56,2.26-.56,3.88,0,3.26.85,5.88,2.56,7.88,1.7,2,3.97,3.66,6.8,4.99,2.82,1.33,5.89,2.66,9.19,3.99,3.41,1.33,6.9,2.78,10.48,4.33,3.57,1.55,6.85,3.7,9.84,6.44,2.98,2.74,5.38,6.44,7.2,11.1,1.81,4.66,2.72,10.77,2.72,18.31,0,13.02-3.04,23.53-9.11,31.52-6.08,7.99-14.82,11.99-26.23,11.99Z"/>
    <path class="cls-2" d="m873.91,222.06c-5.12,0-9.73-1.66-13.83-4.99-4.11-3.33-7.38-8.18-9.84-14.54-2.45-6.36-3.68-14.06-3.68-23.09,0-10.8,1.76-19.27,5.28-25.42,3.52-6.14,8.48-10.54,14.87-13.21,6.4-2.66,13.97-4,22.71-4h7.9c2.3,0,4.11-2.67,4.02-5.85-.1-3.37-.29-5.93-.57-7.69-.43-2.66-.91-4.58-1.44-5.77-.43-1.03-1.25-2-2.48-2.89-1.23-.89-3.71-1.33-7.44-1.33s-7.81.44-11.91,1.33c-4.1.89-7.92,1.93-11.43,3.11-2.48.84-5.19,1.81-8.15,2.94-2.13.81-4.34-.9-4.95-3.84l-3-14.57c-.58-2.82.52-5.8,2.51-6.8,3.05-1.54,5.96-2.85,8.7-3.92,3.78-1.48,8.1-2.81,12.95-4,4.85-1.18,10-1.78,15.43-1.78,9.17,0,16.42,1.96,21.75,5.88,5.33,3.92,9.14,9.54,11.43,16.87,2.29,7.33,3.44,16.09,3.44,26.3v78.77c0,3.08-1.8,5.58-4.02,5.58h-8.68c-1.77,0-3.33-1.6-3.84-3.94l-2.32-10.49h-.96c-3.73,3.55-7.14,6.44-10.24,8.66-3.09,2.22-6.56,4.22-10.39,5.99s-7.78,2.66-11.83,2.66Zm7.2-28.19c2.98,0,6.05-.7,9.2-2.11,2.54-1.14,5.45-2.73,8.73-4.79,1.44-.91,2.38-2.9,2.38-5.1v-14.43c0-2.91-1.62-5.33-3.7-5.57-3.65-.42-7-.63-10.05-.63-7.04,0-11.41,1.11-13.11,3.33-.75.89-1.39,2.41-1.92,4.55-.53,2.15-.8,5.14-.8,8.99,0,5.48.72,9.47,2.16,11.99,1.44,2.52,3.81,3.77,7.12,3.77Z"/>
    <path class="cls-2" d="m949.71,219.18V50.25h24.79v168.93h-24.79Z"/>
    <path class="cls-1" d="m513.93,447.02v-146.36c0-2.68,1.56-4.85,3.49-4.85h18.09c1.94,0,3.51,2.2,3.49,4.89l-.84,124.66c-.03,4.46-4.01,6.5-6.12,3.14h0c-1.96-3.12-.39-8,2.6-8.04l43.09-.53c1.94-.02,3.52,2.15,3.52,4.85v22.23c0,2.68-1.56,4.85-3.49,4.85h-60.34c-1.93,0-3.49-2.17-3.49-4.85Z"/>
    <path class="cls-1" d="m615.96,454.75c-5.12,0-9.73-1.66-13.83-4.99-4.11-3.33-7.38-8.18-9.84-14.54-2.45-6.36-3.68-14.06-3.68-23.09,0-10.8,1.76-19.27,5.28-25.42,3.52-6.14,8.48-10.54,14.87-13.21,6.4-2.66,13.97-4,22.71-4h6.95c2.81,0,5.07-3.27,4.92-7.17-.1-2.73-.28-4.85-.52-6.37-.43-2.66-.91-4.58-1.44-5.77-.43-1.03-1.25-2-2.48-2.89-1.23-.89-3.71-1.33-7.44-1.33s-7.81.44-11.91,1.33c-4.11.89-7.92,1.93-11.43,3.11-2.24.76-4.68,1.63-7.31,2.62s-5.29-1.13-6.03-4.72l-2.52-12.25c-.71-3.46.63-7.11,3.07-8.32,2.77-1.37,5.4-2.55,7.91-3.53,3.78-1.48,8.1-2.81,12.95-4,4.85-1.18,9.99-1.78,15.43-1.78,9.17,0,16.42,1.96,21.75,5.88,5.33,3.92,9.14,9.54,11.43,16.87,2.29,7.33,3.44,16.09,3.44,26.3v77.51c0,3.78-2.21,6.84-4.93,6.84h-7.11c-2.16,0-4.07-1.96-4.71-4.83l-2.13-9.6h-.96c-3.73,3.55-7.14,6.44-10.24,8.66-3.09,2.22-6.56,4.22-10.39,5.99-3.84,1.78-7.78,2.66-11.83,2.66Zm7.2-28.19c2.98,0,6.05-.7,9.2-2.11,2.41-1.08,5.14-2.56,8.2-4.46,1.77-1.1,2.91-3.56,2.91-6.25v-12.46c0-3.56-1.97-6.54-4.53-6.82-3.33-.36-6.41-.54-9.23-.54-7.04,0-11.41,1.11-13.11,3.33-.75.89-1.39,2.41-1.92,4.55-.53,2.15-.8,5.14-.8,8.99,0,5.48.72,9.47,2.16,11.99,1.44,2.52,3.81,3.77,7.12,3.77Z"/>
    <path class="cls-1" d="m733.98,454.75c-3.63,0-7.97-.44-13.03-1.33-5.07-.89-10.18-2.11-15.35-3.66-3.79-1.14-7.28-2.3-10.46-3.47-2-.74-3.37-3.25-3.37-6.12v-150.9c0-3.5,2.04-6.33,4.56-6.33h15.66c2.52,0,4.56,2.83,4.56,6.33v24.93c0,3.92,2.55,6.88,5.33,6.24,2.2-.51,4.21-.91,6.02-1.21,3.2-.52,6.29-.78,9.28-.78,10.77,0,19.27,5.22,25.51,15.65,6.24,10.43,9.36,27.34,9.36,50.72,0,14.21-1.1,25.86-3.28,34.96-2.19,9.1-5.12,16.2-8.8,21.31-3.68,5.11-7.78,8.66-12.31,10.66-4.53,2-9.09,3-13.67,3Zm-1.6-27.97c2.24,0,4.05-.18,5.44-.55,1.38-.37,2.5-1.07,3.36-2.11.96-1.03,1.86-2.81,2.72-5.33.85-2.52,1.54-6.69,2.08-12.54.53-5.84.8-14.24.8-25.19,0-10.36-.3-17.76-.88-22.2-.59-4.44-1.52-7.47-2.8-9.1-1.49-2.07-4.69-3.11-9.6-3.11-3.55,0-7.94.64-13.18,1.9-2.18.53-3.77,3.17-3.77,6.24v64.35c0,3.15,1.68,5.82,3.93,6.27,1.64.33,3.15.6,4.55.81,2.45.37,4.9.55,7.36.55Z"/>
    <path class="cls-1" d="m824.82,454.75c-4.9,0-9.65-.67-14.23-2-4.59-1.33-8.69-2.81-12.31-4.44-2.47-1.11-5.09-2.46-7.86-4.05-2.26-1.3-3.43-4.79-2.71-8.02l3.32-14.77c.81-3.6,3.64-5.5,6.18-4.19s4.93,2.49,7.15,3.51c3.52,1.63,7.22,3.03,11.11,4.22,3.89,1.19,7.49,1.78,10.79,1.78,1.81,0,3.28-.22,4.4-.67.92-.36,1.67-.78,2.27-1.24.25-.2.49-.43.71-.7.69-.85,1.25-1.98,1.66-3.39.48-1.63.72-3.4.72-5.33,0-3.7-.85-6.55-2.56-8.55-1.71-2-3.97-3.66-6.8-4.99-2.83-1.33-6-2.66-9.52-4-3.41-1.48-6.88-3.07-10.4-4.77-3.52-1.7-6.74-3.99-9.68-6.88-2.93-2.89-5.3-6.62-7.12-11.21-1.81-4.59-2.72-10.51-2.72-17.76,0-11.69,2.82-21.09,8.48-28.19,5.65-7.1,14.71-10.66,27.19-10.66,4.69,0,9.22.44,13.59,1.33,4.37.89,8.26,1.93,11.67,3.11,1.39.48,2.65.94,3.79,1.37,2.39.91,3.87,4.2,3.41,7.57l-1.95,14.12c-.5,3.63-3.07,5.98-5.66,5.17-2.19-.68-4.24-1.29-6.14-1.81-3.2-.89-6.61-1.66-10.24-2.33-3.63-.67-7.04-1-10.23-1-2.67,0-4.53.22-5.6.67-1.07.44-1.87.96-2.4,1.55-.43.44-.83,1.15-1.2,2.11-.38.96-.56,2.26-.56,3.88,0,3.26.85,5.88,2.56,7.88,1.7,2,3.97,3.66,6.8,4.99,2.82,1.33,5.89,2.66,9.19,3.99,3.41,1.33,6.9,2.78,10.48,4.33,3.57,1.55,6.85,3.7,9.84,6.44,2.98,2.74,5.38,6.44,7.2,11.1,1.81,4.66,2.72,10.77,2.72,18.31,0,13.02-3.04,23.53-9.11,31.52-6.08,7.99-14.82,11.99-26.23,11.99Z"/>
  </g>
</svg>